<svg width="374" height="270" viewBox="0 0 374 270" fill="none" xmlns="http://www.w3.org/2000/svg">
<rect x="27.8398" y="93.4014" width="345.123" height="167.463" rx="7.56624" fill="#DDF0FB" fill-opacity="0.4"/>
<g filter="url(#filter0_d_8254_2425)">
<rect x="12" y="2.38379" width="350.117" height="246.806" rx="10.9531" fill="white"/>
<rect x="12.1714" y="2.55519" width="349.774" height="246.464" rx="10.7817" stroke="white" stroke-width="0.342796"/>
</g>
<rect x="40.4023" y="2.47729" width="31.6798" height="217.298" fill="#ECEDF7" fill-opacity="0.4"/>
<rect x="92.8398" y="2.47803" width="31.6798" height="217.298" fill="#ECEDF7" fill-opacity="0.4"/>
<rect x="145.273" y="2.47803" width="31.6798" height="217.298" fill="#ECEDF7" fill-opacity="0.4"/>
<rect x="195.523" y="2.47803" width="31.6798" height="217.298" fill="#ECEDF7" fill-opacity="0.4"/>
<rect x="260.734" y="2.38379" width="31.6798" height="217.298" fill="#ECEDF7" fill-opacity="0.4"/>
<rect x="326.223" y="2.38379" width="31.6798" height="217.298" fill="#ECEDF7" fill-opacity="0.4"/>
<path d="M225.84 158.489L241.68 154.393L249.327 141.83L260.524 147.838L272.54 141.83L286.468 158.489L291.111 151.935H301.216L326.068 131.179H332.35L345.732 116.705L350.92 124.898" stroke="url(#paint0_linear_8254_2425)" stroke-width="1.20522" stroke-dasharray="1.21 1.21"/>
<path d="M227.477 177.06L232.119 174.875L250.144 165.044L258.61 168.321L264.345 154.666H274.45L286.193 131.998L298.21 138.28L300.122 133.637L307.222 131.998L313.777 100.319L321.424 121.621L340.541 136.914L349.553 135.276L357.2 143.196" stroke="url(#paint1_linear_8254_2425)" stroke-width="1.20522" stroke-dasharray="1.21 1.21"/>
<path d="M226.656 197.816L231.299 195.631L249.324 185.8L257.79 189.077L263.525 175.422L273.63 189.077L281.277 169.14H291.654L299.301 154.393L305.856 170.779H312.41L320.057 156.032L339.72 157.67L348.733 156.032L357.472 142.376" stroke="url(#paint2_linear_8254_2425)" stroke-width="1.20522" stroke-dasharray="1.21 1.21"/>
<g filter="url(#filter1_d_8254_2425)">
<circle cx="249.086" cy="143.986" r="7.87133" fill="white"/>
</g>
<path d="M249.092 150.047L249.09 143.852L254.04 140.99V147.178L249.092 150.047Z" fill="#666AF6"/>
<path d="M249.092 150.047L249.091 143.851L244.141 140.99V147.178L249.092 150.047Z" fill="#666AF6"/>
<path d="M244.141 140.99L249.091 143.851L254.041 140.99L249.092 138.129L244.141 140.99Z" fill="#B7C5F4"/>
<path d="M252.202 143.855L251.098 144.496V142.688L252.202 142.047V143.855Z" fill="#464648"/>
<path d="M252.198 142.047L247.255 139.189L246.148 139.828L251.094 142.69L252.198 142.047Z" fill="#656769"/>
<path d="M249.746 149.16V148.842L251.408 147.878V148.201L249.746 149.16Z" fill="#464648"/>
<path d="M249.746 148.591V148.272L251.408 147.308V147.632L249.746 148.591Z" fill="#464648"/>
<path d="M252.898 146.271V147.376L253.693 146.916V145.81L252.898 146.271Z" fill="#464648"/>
<path d="M245.228 146.155V147.307L244.434 146.847V145.696L245.228 146.155Z" fill="#464648"/>
<path d="M246.314 146.785V147.936L245.52 147.477V146.325L246.314 146.785Z" fill="#464648"/>
<path d="M246.067 142.79V144.445L244.434 143.501V141.844L246.067 142.79Z" fill="white"/>
<path d="M245.867 143.128V142.859L244.582 142.118V142.383L245.867 143.128Z" fill="#464648"/>
<g filter="url(#filter2_d_8254_2425)">
<circle cx="236.223" cy="172.079" r="7.87133" fill="white"/>
</g>
<path d="M236.232 178.14L236.23 171.944L241.181 169.083V175.271L236.232 178.14Z" fill="#666AF6"/>
<path d="M236.229 178.139L236.228 171.944L231.277 169.082V175.271L236.229 178.139Z" fill="#666AF6"/>
<path d="M231.277 169.082L236.228 171.944L241.178 169.082L236.229 166.221L231.277 169.082Z" fill="#B7C5F4"/>
<path d="M239.338 171.948L238.234 172.589V170.781L239.338 170.14V171.948Z" fill="#464648"/>
<path d="M239.335 170.14L234.391 167.282L233.285 167.921L238.231 170.783L239.335 170.14Z" fill="#656769"/>
<path d="M236.883 177.253V176.935L238.545 175.971V176.294L236.883 177.253Z" fill="#464648"/>
<path d="M236.883 176.684V176.365L238.545 175.401V175.724L236.883 176.684Z" fill="#464648"/>
<path d="M240.035 174.363V175.468L240.83 175.008V173.903L240.035 174.363Z" fill="#464648"/>
<path d="M232.365 174.248V175.399L231.57 174.94V173.789L232.365 174.248Z" fill="#464648"/>
<path d="M233.451 174.877V176.029L232.656 175.569V174.418L233.451 174.877Z" fill="#464648"/>
<path d="M233.204 170.882V172.537L231.57 171.593V169.936L233.204 170.882Z" fill="white"/>
<path d="M233.004 171.221V170.952L231.719 170.211V170.476L233.004 171.221Z" fill="#464648"/>
<g filter="url(#filter3_d_8254_2425)">
<circle cx="281.524" cy="169.382" r="7.87133" fill="white"/>
</g>
<path d="M281.529 175.443L281.527 169.247L286.478 166.386V172.574L281.529 175.443Z" fill="#666AF6"/>
<path d="M281.53 175.442L281.528 169.247L276.578 166.385V172.574L281.53 175.442Z" fill="#666AF6"/>
<path d="M276.578 166.386L281.528 169.247L286.479 166.386L281.53 163.525L276.578 166.386Z" fill="#B7C5F4"/>
<path d="M284.639 169.251L283.535 169.892V168.084L284.639 167.443V169.251Z" fill="#464648"/>
<path d="M284.635 167.443L279.692 164.585L278.586 165.224L283.531 168.086L284.635 167.443Z" fill="#656769"/>
<path d="M282.184 174.556V174.238L283.845 173.274V173.597L282.184 174.556Z" fill="#464648"/>
<path d="M282.184 173.987V173.668L283.845 172.704V173.028L282.184 173.987Z" fill="#464648"/>
<path d="M285.336 171.667V172.772L286.131 172.312V171.206L285.336 171.667Z" fill="#464648"/>
<path d="M277.666 171.551V172.703L276.871 172.243V171.092L277.666 171.551Z" fill="#464648"/>
<path d="M278.752 172.18V173.332L277.957 172.872V171.721L278.752 172.18Z" fill="#464648"/>
<path d="M278.504 168.186V169.841L276.871 168.897V167.24L278.504 168.186Z" fill="white"/>
<path d="M278.305 168.524V168.255L277.02 167.513V167.778L278.305 168.524Z" fill="#464648"/>
<path d="M12.8203 179.518L25.9292 186.892L36.5802 184.161L50.7815 138.553L66.6214 195.358L75.6337 179.518H89.2888L98.5743 195.358L110.045 191.534L123.153 202.459L131.073 154.939L150.737 127.629L153.741 147.838H162.48L174.77 138.553L187.332 147.838L197.71 127.629L205.63 145.107L217.1 147.838L225.02 158.216" stroke="#E2E2ED" stroke-width="1.20522"/>
<path d="M12.8203 176.514L25.9292 171.052L35.4878 159.582L51.0546 171.052L65.8021 153.027L81.642 159.582L99.6667 153.027L113.595 176.514L143.09 165.317L146.367 153.027L171.766 127.629L201.534 153.027L211.092 134.456L227.478 176.514" stroke="#E2E2ED" stroke-width="1.20522"/>
<path d="M12 197.27L25.1089 191.808L33.3019 194.539L50.2343 191.808L64.7087 180.337L80.8217 170.233L97.754 180.337L112.775 197.27L142.27 186.073L145.547 173.783L170.126 170.233L200.713 173.783L213.276 170.233L226.658 197.27" stroke="#E2E2ED" stroke-width="1.20522"/>
<path d="M233.78 233.719C233.923 233.277 233.898 232.798 233.711 232.374C233.524 231.949 233.187 231.608 232.765 231.416C232.342 231.224 231.864 231.193 231.421 231.331C230.977 231.468 230.6 231.764 230.361 232.162C229.977 231.976 229.555 231.879 229.128 231.878C228.701 231.878 228.279 231.974 227.894 232.159C227.509 232.345 227.171 232.615 226.906 232.949C226.64 233.283 226.453 233.673 226.359 234.09C226.265 234.507 226.266 234.939 226.362 235.355C226.459 235.771 226.648 236.16 226.916 236.493C227.184 236.826 227.524 237.094 227.909 237.277C228.295 237.46 228.718 237.553 229.145 237.55H232.296C232.74 237.549 233.173 237.414 233.539 237.162C233.905 236.911 234.186 236.555 234.346 236.141C234.507 235.727 234.538 235.275 234.437 234.842C234.336 234.41 234.107 234.019 233.78 233.719ZM230.897 232.493C231.038 232.255 231.253 232.07 231.51 231.967C231.766 231.864 232.049 231.847 232.316 231.921C232.582 231.994 232.817 232.153 232.984 232.373C233.152 232.593 233.242 232.862 233.241 233.139C233.241 233.208 233.234 233.278 233.222 233.347C232.705 233.104 232.114 233.074 231.574 233.262C231.395 232.963 231.162 232.701 230.887 232.486L230.897 232.493ZM232.296 236.92H229.145C228.749 236.92 228.36 236.814 228.02 236.612C227.679 236.41 227.399 236.12 227.209 235.773C227.019 235.425 226.926 235.033 226.94 234.638C226.954 234.242 227.074 233.857 227.287 233.524C227.501 233.19 227.8 232.921 228.154 232.743C228.508 232.565 228.903 232.486 229.298 232.514C229.693 232.542 230.073 232.675 230.399 232.9C230.725 233.126 230.984 233.434 231.149 233.794C231.167 233.833 231.192 233.867 231.224 233.895C231.255 233.924 231.292 233.945 231.332 233.959C231.372 233.973 231.414 233.979 231.456 233.976C231.499 233.973 231.54 233.961 231.577 233.942C231.8 233.828 232.046 233.769 232.296 233.769C232.714 233.769 233.115 233.935 233.41 234.23C233.705 234.526 233.871 234.927 233.871 235.345C233.871 235.762 233.705 236.163 233.41 236.459C233.115 236.754 232.714 236.92 232.296 236.92Z" fill="#6B7687"/>
<path d="M231.979 230.618C232.063 230.618 232.143 230.584 232.202 230.525C232.261 230.466 232.294 230.386 232.294 230.303V229.672C232.294 229.589 232.261 229.509 232.202 229.449C232.143 229.39 232.063 229.357 231.979 229.357C231.896 229.357 231.815 229.39 231.756 229.449C231.697 229.509 231.664 229.589 231.664 229.672V230.303C231.664 230.386 231.697 230.466 231.756 230.525C231.815 230.584 231.896 230.618 231.979 230.618Z" fill="#6B7687"/>
<path d="M230.289 230.842C230.333 230.91 230.401 230.959 230.48 230.979C230.559 230.998 230.643 230.986 230.713 230.945C230.783 230.905 230.835 230.838 230.858 230.76C230.88 230.682 230.872 230.598 230.834 230.526L230.522 229.988C230.479 229.919 230.41 229.87 230.331 229.851C230.253 229.831 230.169 229.843 230.099 229.884C230.028 229.925 229.977 229.991 229.954 230.069C229.931 230.147 229.94 230.231 229.977 230.303L230.289 230.842Z" fill="#6B7687"/>
<path d="M235.449 232.824H234.819C234.735 232.824 234.655 232.857 234.596 232.916C234.537 232.975 234.504 233.055 234.504 233.139C234.504 233.222 234.537 233.303 234.596 233.362C234.655 233.421 234.735 233.454 234.819 233.454H235.449C235.533 233.454 235.613 233.421 235.672 233.362C235.731 233.303 235.764 233.222 235.764 233.139C235.764 233.055 235.731 232.975 235.672 232.916C235.613 232.857 235.533 232.824 235.449 232.824Z" fill="#6B7687"/>
<path d="M234.438 232.036C234.494 232.036 234.548 232.022 234.596 231.995L235.141 231.68C235.21 231.636 235.259 231.568 235.278 231.489C235.297 231.41 235.286 231.326 235.245 231.256C235.204 231.186 235.138 231.134 235.06 231.111C234.982 231.088 234.898 231.097 234.826 231.135L234.281 231.45C234.22 231.484 234.173 231.538 234.146 231.602C234.119 231.666 234.114 231.738 234.132 231.805C234.15 231.873 234.19 231.932 234.245 231.974C234.301 232.017 234.369 232.039 234.438 232.039V232.036Z" fill="#6B7687"/>
<path d="M233.243 230.955C233.279 230.976 233.318 230.989 233.36 230.995C233.401 231 233.443 230.997 233.483 230.986C233.523 230.976 233.56 230.957 233.593 230.932C233.626 230.906 233.654 230.874 233.674 230.838L233.989 230.293C234.027 230.221 234.035 230.137 234.013 230.059C233.99 229.981 233.938 229.915 233.868 229.874C233.798 229.834 233.714 229.822 233.635 229.841C233.556 229.86 233.488 229.91 233.444 229.978L233.129 230.523C233.108 230.559 233.095 230.599 233.089 230.64C233.083 230.681 233.086 230.723 233.096 230.763C233.107 230.803 233.125 230.84 233.15 230.873C233.175 230.906 233.207 230.934 233.243 230.955Z" fill="#6B7687"/>
<path d="M241.46 237.259C241.109 237.259 240.79 237.199 240.506 237.079C240.226 236.958 240.005 236.785 239.841 236.558C239.677 236.331 239.592 236.064 239.588 235.755H240.672C240.687 235.963 240.759 236.126 240.889 236.247C241.024 236.367 241.207 236.428 241.439 236.428C241.675 236.428 241.861 236.372 241.996 236.261C242.131 236.146 242.198 235.996 242.198 235.813C242.198 235.664 242.152 235.541 242.061 235.444C241.969 235.348 241.853 235.273 241.714 235.22C241.579 235.162 241.391 235.1 241.15 235.032C240.822 234.936 240.554 234.842 240.347 234.75C240.144 234.654 239.968 234.511 239.819 234.323C239.674 234.131 239.602 233.875 239.602 233.557C239.602 233.258 239.677 232.998 239.826 232.776C239.976 232.554 240.185 232.385 240.455 232.27C240.725 232.149 241.034 232.089 241.381 232.089C241.902 232.089 242.323 232.217 242.646 232.472C242.974 232.723 243.155 233.075 243.189 233.528H242.075C242.065 233.354 241.991 233.212 241.851 233.101C241.716 232.986 241.535 232.928 241.309 232.928C241.111 232.928 240.952 232.978 240.831 233.08C240.716 233.181 240.658 233.328 240.658 233.521C240.658 233.656 240.701 233.769 240.788 233.861C240.88 233.947 240.99 234.02 241.121 234.078C241.256 234.131 241.444 234.193 241.685 234.266C242.012 234.362 242.28 234.458 242.487 234.555C242.695 234.651 242.873 234.796 243.022 234.989C243.172 235.182 243.247 235.435 243.247 235.748C243.247 236.018 243.177 236.269 243.037 236.5C242.897 236.731 242.692 236.917 242.422 237.057C242.152 237.192 241.832 237.259 241.46 237.259ZM245.137 233.781C245.267 233.598 245.445 233.446 245.672 233.326C245.903 233.2 246.166 233.138 246.46 233.138C246.802 233.138 247.111 233.222 247.386 233.391C247.665 233.559 247.885 233.8 248.044 234.114C248.208 234.422 248.29 234.781 248.29 235.191C248.29 235.601 248.208 235.965 248.044 236.283C247.885 236.596 247.665 236.84 247.386 237.013C247.111 237.187 246.802 237.274 246.46 237.274C246.166 237.274 245.906 237.214 245.679 237.093C245.457 236.973 245.276 236.821 245.137 236.637V239.118H244.124V233.203H245.137V233.781ZM247.255 235.191C247.255 234.95 247.205 234.743 247.104 234.569C247.007 234.391 246.877 234.256 246.713 234.164C246.554 234.073 246.38 234.027 246.192 234.027C246.009 234.027 245.836 234.075 245.672 234.172C245.513 234.263 245.383 234.398 245.281 234.577C245.185 234.755 245.137 234.965 245.137 235.206C245.137 235.447 245.185 235.656 245.281 235.835C245.383 236.013 245.513 236.151 245.672 236.247C245.836 236.339 246.009 236.384 246.192 236.384C246.38 236.384 246.554 236.336 246.713 236.24C246.877 236.143 247.007 236.006 247.104 235.828C247.205 235.649 247.255 235.437 247.255 235.191ZM250.038 233.824C250.168 233.612 250.336 233.446 250.544 233.326C250.756 233.205 250.997 233.145 251.267 233.145V234.208H250.999C250.681 234.208 250.44 234.282 250.276 234.432C250.117 234.581 250.038 234.842 250.038 235.213V237.209H249.025V233.203H250.038V233.824ZM252.462 232.725C252.284 232.725 252.134 232.67 252.014 232.559C251.898 232.443 251.84 232.301 251.84 232.132C251.84 231.964 251.898 231.824 252.014 231.713C252.134 231.597 252.284 231.539 252.462 231.539C252.641 231.539 252.788 231.597 252.903 231.713C253.024 231.824 253.084 231.964 253.084 232.132C253.084 232.301 253.024 232.443 252.903 232.559C252.788 232.67 252.641 232.725 252.462 232.725ZM252.961 233.203V237.209H251.949V233.203H252.961ZM256.181 233.145C256.659 233.145 257.044 233.297 257.338 233.6C257.633 233.899 257.78 234.319 257.78 234.859V237.209H256.767V234.996C256.767 234.678 256.688 234.434 256.529 234.266C256.369 234.092 256.153 234.005 255.878 234.005C255.598 234.005 255.376 234.092 255.212 234.266C255.053 234.434 254.974 234.678 254.974 234.996V237.209H253.961V233.203H254.974V233.702C255.109 233.528 255.28 233.393 255.487 233.297C255.699 233.195 255.931 233.145 256.181 233.145ZM260.312 233.138C260.61 233.138 260.873 233.198 261.1 233.318C261.326 233.434 261.505 233.586 261.635 233.774V233.203H262.654V237.238C262.654 237.609 262.58 237.939 262.43 238.228C262.281 238.522 262.057 238.754 261.758 238.923C261.459 239.096 261.097 239.183 260.673 239.183C260.104 239.183 259.637 239.05 259.27 238.785C258.909 238.52 258.704 238.158 258.656 237.7H259.661C259.714 237.884 259.827 238.028 260.001 238.134C260.179 238.245 260.393 238.301 260.644 238.301C260.938 238.301 261.177 238.211 261.36 238.033C261.543 237.86 261.635 237.594 261.635 237.238V236.616C261.505 236.804 261.324 236.96 261.092 237.086C260.866 237.211 260.606 237.274 260.312 237.274C259.974 237.274 259.666 237.187 259.386 237.013C259.106 236.84 258.885 236.596 258.721 236.283C258.562 235.965 258.482 235.601 258.482 235.191C258.482 234.786 258.562 234.427 258.721 234.114C258.885 233.8 259.104 233.559 259.379 233.391C259.658 233.222 259.969 233.138 260.312 233.138ZM261.635 235.206C261.635 234.96 261.587 234.75 261.49 234.577C261.394 234.398 261.264 234.263 261.1 234.172C260.936 234.075 260.76 234.027 260.572 234.027C260.384 234.027 260.21 234.073 260.051 234.164C259.892 234.256 259.762 234.391 259.661 234.569C259.564 234.743 259.516 234.95 259.516 235.191C259.516 235.432 259.564 235.644 259.661 235.828C259.762 236.006 259.892 236.143 260.051 236.24C260.215 236.336 260.389 236.384 260.572 236.384C260.76 236.384 260.936 236.339 261.1 236.247C261.264 236.151 261.394 236.016 261.49 235.842C261.587 235.664 261.635 235.452 261.635 235.206Z" fill="#111D31"/>
<path d="M92.9071 230.996C92.421 230.996 91.9458 231.14 91.5416 231.41C91.1374 231.68 90.8224 232.064 90.6363 232.513C90.4503 232.962 90.4016 233.456 90.4964 233.933C90.5913 234.41 90.8254 234.848 91.1691 235.192C91.5129 235.536 91.9508 235.77 92.4276 235.864C92.9044 235.959 93.3986 235.911 93.8477 235.725C94.2969 235.539 94.6807 235.224 94.9508 234.819C95.2209 234.415 95.3651 233.94 95.3651 233.454C95.3651 232.802 95.1061 232.177 94.6451 231.716C94.1842 231.255 93.559 230.996 92.9071 230.996ZM92.9071 235.365C92.529 235.365 92.1594 235.253 91.845 235.043C91.5307 234.833 91.2856 234.535 91.1409 234.185C90.9963 233.836 90.9584 233.452 91.0322 233.081C91.1059 232.71 91.288 232.369 91.5554 232.102C91.8227 231.835 92.1633 231.653 92.5342 231.579C92.905 231.505 93.2894 231.543 93.6387 231.688C93.988 231.832 94.2866 232.077 94.4967 232.392C94.7067 232.706 94.8188 233.076 94.8188 233.454C94.8188 233.961 94.6174 234.447 94.2589 234.806C93.9004 235.164 93.4142 235.365 92.9071 235.365Z" fill="#666AF6"/>
<path d="M92.902 230.45C92.9744 230.45 93.0439 230.421 93.0951 230.37C93.1463 230.318 93.1751 230.249 93.1751 230.176V229.63C93.1751 229.558 93.1463 229.488 93.0951 229.437C93.0439 229.386 92.9744 229.357 92.902 229.357C92.8296 229.357 92.7601 229.386 92.7089 229.437C92.6577 229.488 92.6289 229.558 92.6289 229.63V230.176C92.6289 230.249 92.6577 230.318 92.7089 230.37C92.7601 230.421 92.8296 230.45 92.902 230.45Z" fill="#666AF6"/>
<path d="M91.0269 230.753C91.0647 230.812 91.124 230.855 91.1924 230.871C91.2608 230.888 91.333 230.878 91.394 230.842C91.455 230.807 91.5 230.75 91.5196 230.682C91.5393 230.614 91.532 230.542 91.4993 230.479L91.2262 230.007C91.1884 229.948 91.1291 229.905 91.0607 229.888C90.9923 229.871 90.9201 229.882 90.8591 229.917C90.7981 229.952 90.7531 230.01 90.7335 230.077C90.7138 230.145 90.7211 230.218 90.7538 230.28L91.0269 230.753Z" fill="#666AF6"/>
<path d="M90.2042 231.577L89.7317 231.304C89.6693 231.272 89.5967 231.264 89.529 231.284C89.4614 231.304 89.4039 231.349 89.3687 231.41C89.3334 231.471 89.3231 231.543 89.3399 231.611C89.3566 231.68 89.3992 231.739 89.4586 231.777L89.9311 232.05C89.9935 232.083 90.0661 232.09 90.1338 232.07C90.2014 232.051 90.2589 232.006 90.2941 231.945C90.3294 231.884 90.3397 231.811 90.3229 231.743C90.3062 231.674 90.2636 231.615 90.2042 231.577Z" fill="#666AF6"/>
<path d="M89.901 233.454C89.901 233.381 89.8722 233.312 89.821 233.26C89.7698 233.209 89.7003 233.18 89.6279 233.18H89.0817C89.0093 233.18 88.9398 233.209 88.8886 233.26C88.8374 233.312 88.8086 233.381 88.8086 233.454C88.8086 233.526 88.8374 233.595 88.8886 233.647C88.9398 233.698 89.0093 233.727 89.0817 233.727H89.6279C89.7003 233.727 89.7698 233.698 89.821 233.647C89.8722 233.595 89.901 233.526 89.901 233.454Z" fill="#666AF6"/>
<path d="M89.9311 234.855L89.4586 235.128C89.3992 235.165 89.3566 235.225 89.3399 235.293C89.3231 235.362 89.3334 235.434 89.3687 235.495C89.4039 235.556 89.4614 235.601 89.529 235.62C89.5967 235.64 89.6693 235.633 89.7317 235.6L90.2042 235.327C90.2636 235.289 90.3062 235.23 90.3229 235.162C90.3397 235.093 90.3294 235.021 90.2941 234.96C90.2589 234.899 90.2014 234.854 90.1338 234.834C90.0661 234.815 89.9935 234.822 89.9311 234.855Z" fill="#666AF6"/>
<path d="M91.401 236.056C91.3698 236.038 91.3354 236.027 91.2997 236.022C91.264 236.017 91.2277 236.02 91.1929 236.029C91.1581 236.038 91.1256 236.055 91.0971 236.077C91.0686 236.099 91.0447 236.126 91.0269 236.157L90.7538 236.63C90.7211 236.692 90.7138 236.765 90.7335 236.833C90.7531 236.9 90.7981 236.958 90.8591 236.993C90.9201 237.028 90.9923 237.038 91.0607 237.022C91.1291 237.005 91.1884 236.962 91.2262 236.903L91.4993 236.43C91.5175 236.399 91.5294 236.365 91.5343 236.33C91.5392 236.294 91.537 236.258 91.5278 236.223C91.5187 236.188 91.5028 236.156 91.481 236.127C91.4593 236.098 91.4321 236.074 91.401 236.056Z" fill="#666AF6"/>
<path d="M92.902 236.458C92.8296 236.458 92.7601 236.487 92.7089 236.538C92.6577 236.589 92.6289 236.658 92.6289 236.731V237.277C92.6289 237.35 92.6577 237.419 92.7089 237.47C92.7601 237.521 92.8296 237.55 92.902 237.55C92.9744 237.55 93.0439 237.521 93.0951 237.47C93.1463 237.419 93.1751 237.35 93.1751 237.277V236.731C93.1751 236.658 93.1463 236.589 93.0951 236.538C93.0439 236.487 92.9744 236.458 92.902 236.458Z" fill="#666AF6"/>
<path d="M94.7809 236.154C94.7431 236.095 94.6838 236.052 94.6154 236.036C94.547 236.019 94.4748 236.029 94.4138 236.064C94.3528 236.1 94.3078 236.157 94.2882 236.225C94.2685 236.292 94.2758 236.365 94.3085 236.428L94.5816 236.9C94.6193 236.959 94.6786 237.002 94.7471 237.019C94.8155 237.035 94.8877 237.025 94.9487 236.99C95.0097 236.955 95.0547 236.897 95.0743 236.83C95.0939 236.762 95.0867 236.689 95.054 236.627L94.7809 236.154Z" fill="#666AF6"/>
<path d="M96.3526 235.128L95.8802 234.855C95.8177 234.822 95.7451 234.815 95.6775 234.834C95.6098 234.854 95.5524 234.899 95.5171 234.96C95.4819 235.021 95.4716 235.093 95.4883 235.162C95.5051 235.23 95.5476 235.289 95.6071 235.327L96.0795 235.6C96.1419 235.633 96.2146 235.64 96.2822 235.62C96.3499 235.601 96.4073 235.556 96.4426 235.495C96.4778 235.434 96.4881 235.362 96.4714 235.293C96.4546 235.225 96.4121 235.165 96.3526 235.128Z" fill="#666AF6"/>
<path d="M96.7295 233.18H96.1833C96.1108 233.18 96.0414 233.209 95.9901 233.26C95.9389 233.312 95.9102 233.381 95.9102 233.454C95.9102 233.526 95.9389 233.595 95.9901 233.647C96.0414 233.698 96.1108 233.727 96.1833 233.727H96.7295C96.8019 233.727 96.8714 233.698 96.9226 233.647C96.9738 233.595 97.0026 233.526 97.0026 233.454C97.0026 233.381 96.9738 233.312 96.9226 233.26C96.8714 233.209 96.8019 233.18 96.7295 233.18Z" fill="#666AF6"/>
<path d="M95.7438 232.088C95.7916 232.088 95.8387 232.076 95.8803 232.053L96.3528 231.779C96.3854 231.762 96.4143 231.739 96.4376 231.71C96.4609 231.682 96.4782 231.649 96.4885 231.614C96.4987 231.578 96.5017 231.541 96.4973 231.505C96.4929 231.468 96.4811 231.433 96.4626 231.401C96.4442 231.369 96.4195 231.341 96.39 231.319C96.3606 231.297 96.3269 231.281 96.2912 231.272C96.2554 231.263 96.2182 231.262 96.1819 231.268C96.1455 231.274 96.1108 231.287 96.0797 231.307L95.6072 231.58C95.5546 231.61 95.5134 231.656 95.49 231.712C95.4666 231.768 95.4624 231.83 95.478 231.888C95.4936 231.947 95.5282 231.998 95.5763 232.035C95.6244 232.072 95.6833 232.091 95.7438 232.091V232.088Z" fill="#666AF6"/>
<path d="M94.4092 230.851C94.4404 230.869 94.4748 230.881 94.5106 230.885C94.5463 230.89 94.5826 230.888 94.6173 230.878C94.6521 230.869 94.6847 230.853 94.7132 230.831C94.7417 230.809 94.7655 230.781 94.7834 230.75L95.0565 230.277C95.0891 230.215 95.0964 230.142 95.0768 230.075C95.0572 230.007 95.0121 229.95 94.9512 229.914C94.8902 229.879 94.8179 229.869 94.7495 229.886C94.6811 229.902 94.6218 229.945 94.584 230.004L94.3109 230.477C94.2927 230.508 94.2809 230.542 94.276 230.578C94.2711 230.613 94.2733 230.649 94.2824 230.684C94.2915 230.719 94.3074 230.752 94.3292 230.78C94.351 230.809 94.3782 230.833 94.4092 230.851Z" fill="#666AF6"/>
<path d="M102.226 236.718C101.874 236.718 101.556 236.658 101.272 236.537C100.992 236.417 100.77 236.243 100.606 236.017C100.442 235.79 100.358 235.523 100.353 235.214H101.438C101.452 235.421 101.525 235.585 101.655 235.706C101.79 235.826 101.973 235.886 102.204 235.886C102.441 235.886 102.626 235.831 102.761 235.72C102.896 235.604 102.964 235.455 102.964 235.272C102.964 235.122 102.918 234.999 102.826 234.903C102.735 234.807 102.619 234.732 102.479 234.679C102.344 234.621 102.156 234.558 101.915 234.491C101.587 234.394 101.32 234.3 101.112 234.209C100.91 234.112 100.734 233.97 100.585 233.782C100.44 233.589 100.368 233.334 100.368 233.016C100.368 232.717 100.442 232.456 100.592 232.235C100.741 232.013 100.951 231.844 101.221 231.728C101.491 231.608 101.799 231.548 102.147 231.548C102.667 231.548 103.089 231.675 103.412 231.931C103.74 232.182 103.921 232.534 103.954 232.987H102.841C102.831 232.813 102.756 232.671 102.617 232.56C102.482 232.444 102.301 232.387 102.074 232.387C101.877 232.387 101.717 232.437 101.597 232.538C101.481 232.64 101.423 232.787 101.423 232.98C101.423 233.114 101.467 233.228 101.554 233.319C101.645 233.406 101.756 233.478 101.886 233.536C102.021 233.589 102.209 233.652 102.45 233.724C102.778 233.821 103.046 233.917 103.253 234.014C103.46 234.11 103.639 234.255 103.788 234.447C103.937 234.64 104.012 234.893 104.012 235.207C104.012 235.477 103.942 235.727 103.803 235.959C103.663 236.19 103.458 236.376 103.188 236.516C102.918 236.651 102.597 236.718 102.226 236.718ZM108.672 232.661V236.667H107.652V236.161C107.522 236.335 107.351 236.472 107.139 236.573C106.932 236.67 106.705 236.718 106.459 236.718C106.146 236.718 105.869 236.653 105.628 236.523C105.386 236.388 105.196 236.193 105.056 235.937C104.921 235.677 104.854 235.368 104.854 235.012V232.661H105.866V234.867C105.866 235.185 105.946 235.431 106.105 235.604C106.264 235.773 106.481 235.858 106.756 235.858C107.035 235.858 107.255 235.773 107.414 235.604C107.573 235.431 107.652 235.185 107.652 234.867V232.661H108.672ZM114.646 232.603C115.138 232.603 115.533 232.755 115.832 233.059C116.136 233.358 116.287 233.777 116.287 234.317V236.667H115.275V234.455C115.275 234.141 115.196 233.903 115.036 233.739C114.877 233.57 114.66 233.486 114.386 233.486C114.111 233.486 113.891 233.57 113.728 233.739C113.568 233.903 113.489 234.141 113.489 234.455V236.667H112.477V234.455C112.477 234.141 112.397 233.903 112.238 233.739C112.079 233.57 111.862 233.486 111.587 233.486C111.307 233.486 111.086 233.57 110.922 233.739C110.763 233.903 110.683 234.141 110.683 234.455V236.667H109.671V232.661H110.683V233.146C110.813 232.977 110.98 232.845 111.182 232.748C111.389 232.652 111.616 232.603 111.862 232.603C112.175 232.603 112.455 232.671 112.701 232.806C112.947 232.936 113.137 233.124 113.272 233.37C113.402 233.139 113.59 232.953 113.836 232.813C114.087 232.673 114.357 232.603 114.646 232.603ZM122.223 232.603C122.715 232.603 123.11 232.755 123.409 233.059C123.713 233.358 123.865 233.777 123.865 234.317V236.667H122.852V234.455C122.852 234.141 122.773 233.903 122.614 233.739C122.455 233.57 122.238 233.486 121.963 233.486C121.688 233.486 121.469 233.57 121.305 233.739C121.146 233.903 121.066 234.141 121.066 234.455V236.667H120.054V234.455C120.054 234.141 119.974 233.903 119.815 233.739C119.656 233.57 119.439 233.486 119.164 233.486C118.885 233.486 118.663 233.57 118.499 233.739C118.34 233.903 118.261 234.141 118.261 234.455V236.667H117.248V232.661H118.261V233.146C118.391 232.977 118.557 232.845 118.759 232.748C118.967 232.652 119.193 232.603 119.439 232.603C119.753 232.603 120.032 232.671 120.278 232.806C120.524 232.936 120.714 233.124 120.849 233.37C120.98 233.139 121.168 232.953 121.413 232.813C121.664 232.673 121.934 232.603 122.223 232.603ZM128.55 234.578C128.55 234.722 128.54 234.852 128.521 234.968H125.592C125.616 235.257 125.717 235.484 125.896 235.648C126.074 235.812 126.293 235.894 126.554 235.894C126.93 235.894 127.197 235.732 127.356 235.409H128.448C128.333 235.795 128.111 236.113 127.783 236.364C127.455 236.61 127.053 236.733 126.575 236.733C126.19 236.733 125.843 236.648 125.534 236.479C125.23 236.306 124.992 236.062 124.818 235.749C124.65 235.436 124.565 235.074 124.565 234.664C124.565 234.25 124.65 233.886 124.818 233.572C124.987 233.259 125.223 233.018 125.527 232.849C125.831 232.681 126.18 232.596 126.575 232.596C126.956 232.596 127.296 232.678 127.595 232.842C127.899 233.006 128.133 233.24 128.297 233.544C128.465 233.842 128.55 234.187 128.55 234.578ZM127.501 234.288C127.496 234.028 127.402 233.821 127.219 233.666C127.036 233.507 126.812 233.428 126.547 233.428C126.296 233.428 126.084 233.505 125.91 233.659C125.741 233.809 125.638 234.018 125.599 234.288H127.501ZM130.301 233.283C130.431 233.071 130.6 232.905 130.807 232.784C131.019 232.664 131.26 232.603 131.53 232.603V233.666H131.263C130.945 233.666 130.704 233.741 130.54 233.891C130.381 234.04 130.301 234.3 130.301 234.672V236.667H129.289V232.661H130.301V233.283Z" fill="#111D31"/>
<path d="M166.286 232.052C166.285 231.632 166.155 231.223 165.913 230.88C165.671 230.538 165.329 230.278 164.934 230.136C164.539 229.995 164.11 229.979 163.705 230.09C163.301 230.201 162.94 230.435 162.673 230.758C162.435 230.652 162.177 230.596 161.916 230.595C161.407 230.593 160.915 230.781 160.538 231.123C160.161 231.465 159.925 231.935 159.877 232.442L159.792 232.474L159.711 232.515H159.685C159.625 232.544 159.566 232.576 159.51 232.611L159.405 232.687C159.355 232.724 159.308 232.764 159.262 232.806L159.169 232.902C159.127 232.949 159.087 232.997 159.05 233.048C159.023 233.083 158.997 233.118 158.974 233.156C158.933 233.222 158.92 233.301 158.937 233.376C158.955 233.452 159.001 233.517 159.067 233.558C159.133 233.599 159.212 233.612 159.287 233.595C159.363 233.577 159.428 233.53 159.469 233.465L159.519 233.395C159.543 233.361 159.569 233.329 159.597 233.299L159.658 233.235C159.694 233.202 159.731 233.172 159.769 233.144L159.824 233.103C159.862 233.081 159.901 233.06 159.941 233.042L159.982 233.022L160.014 233.004C160.068 232.983 160.123 232.965 160.18 232.952H160.221C160.287 232.938 160.347 232.902 160.39 232.849C160.433 232.795 160.455 232.729 160.454 232.661V232.634C160.454 232.248 160.607 231.878 160.88 231.605C161.153 231.331 161.524 231.178 161.91 231.178C162.297 231.178 162.667 231.331 162.94 231.605C163.213 231.878 163.367 232.248 163.367 232.634C163.367 232.634 163.367 232.664 163.367 232.669C163.366 232.713 163.375 232.756 163.393 232.796C163.411 232.836 163.438 232.871 163.472 232.899C163.505 232.927 163.545 232.947 163.587 232.958C163.629 232.968 163.674 232.969 163.716 232.961C163.904 232.922 164.098 232.931 164.281 232.985C164.465 233.04 164.632 233.139 164.768 233.273C164.905 233.408 165.006 233.574 165.062 233.756C165.119 233.939 165.13 234.133 165.094 234.321V234.35V234.385C165.083 234.433 165.068 234.479 165.051 234.525L165.021 234.595C164.998 234.644 164.972 234.692 164.943 234.738L164.919 234.776L164.896 234.802C164.785 234.946 164.643 235.061 164.479 235.14C164.316 235.219 164.137 235.259 163.955 235.256H161.916C161.839 235.256 161.765 235.287 161.71 235.342C161.655 235.396 161.625 235.47 161.625 235.548C161.625 235.625 161.655 235.699 161.71 235.754C161.765 235.808 161.839 235.839 161.916 235.839H163.955C164.216 235.839 164.474 235.78 164.709 235.667C164.944 235.553 165.151 235.388 165.313 235.183L165.351 235.143L165.38 235.099L165.438 235.009C165.475 234.95 165.508 234.89 165.537 234.828C165.554 234.793 165.569 234.758 165.581 234.723C165.609 234.648 165.632 234.571 165.651 234.493C165.651 234.467 165.651 234.441 165.668 234.417C165.725 234.131 165.707 233.835 165.616 233.558C165.826 233.367 165.994 233.135 166.11 232.876C166.225 232.616 166.285 232.336 166.286 232.052ZM165.333 233.019C165.17 232.809 164.961 232.639 164.722 232.522C164.484 232.405 164.221 232.344 163.955 232.343H163.935C163.84 231.842 163.57 231.391 163.175 231.07C163.438 230.803 163.794 230.647 164.169 230.636C164.544 230.624 164.91 230.758 165.188 231.01C165.467 231.261 165.638 231.61 165.666 231.985C165.693 232.359 165.575 232.73 165.336 233.019H165.333Z" fill="#666AF6"/>
<path d="M160.169 235.256H157.838C157.761 235.256 157.687 235.287 157.632 235.341C157.578 235.396 157.547 235.47 157.547 235.547C157.547 235.625 157.578 235.699 157.632 235.753C157.687 235.808 157.761 235.839 157.838 235.839H160.169C160.246 235.839 160.32 235.869 160.375 235.924C160.429 235.979 160.46 236.053 160.46 236.13C160.46 236.207 160.429 236.281 160.375 236.336C160.32 236.391 160.246 236.421 160.169 236.421C160.091 236.421 160.017 236.452 159.963 236.507C159.908 236.561 159.877 236.635 159.877 236.713C159.877 236.79 159.908 236.864 159.963 236.919C160.017 236.973 160.091 237.004 160.169 237.004C160.4 237.004 160.623 236.912 160.787 236.748C160.95 236.584 161.043 236.362 161.043 236.13C161.043 235.898 160.95 235.676 160.787 235.512C160.623 235.348 160.4 235.256 160.169 235.256Z" fill="#666AF6"/>
<path d="M157.866 234.673H161.918C162.149 234.673 162.372 234.581 162.536 234.417C162.699 234.254 162.792 234.031 162.792 233.799C162.792 233.568 162.699 233.345 162.536 233.182C162.372 233.018 162.149 232.926 161.918 232.926C161.84 232.926 161.766 232.956 161.712 233.011C161.657 233.065 161.626 233.14 161.626 233.217C161.626 233.294 161.657 233.368 161.712 233.423C161.766 233.477 161.84 233.508 161.918 233.508C161.995 233.508 162.069 233.539 162.124 233.593C162.178 233.648 162.209 233.722 162.209 233.799C162.209 233.877 162.178 233.951 162.124 234.005C162.069 234.06 161.995 234.091 161.918 234.091H157.866C157.788 234.091 157.714 234.121 157.66 234.176C157.605 234.231 157.574 234.305 157.574 234.382C157.574 234.459 157.605 234.533 157.66 234.588C157.714 234.643 157.788 234.673 157.866 234.673Z" fill="#666AF6"/>
<path d="M174.793 236.247H172.783L172.45 237.209H171.387L173.202 232.154H174.381L176.196 237.209H175.126L174.793 236.247ZM174.518 235.437L173.788 233.326L173.058 235.437H174.518ZM180.656 233.203V237.209H179.637V236.703C179.507 236.876 179.336 237.013 179.123 237.115C178.916 237.211 178.69 237.259 178.444 237.259C178.13 237.259 177.853 237.194 177.612 237.064C177.371 236.929 177.181 236.734 177.041 236.478C176.906 236.218 176.838 235.91 176.838 235.553V233.203H177.851V235.408C177.851 235.726 177.93 235.972 178.089 236.146C178.248 236.314 178.465 236.399 178.74 236.399C179.02 236.399 179.239 236.314 179.398 236.146C179.557 235.972 179.637 235.726 179.637 235.408V233.203H180.656ZM182.834 234.034V235.972C182.834 236.107 182.865 236.206 182.928 236.269C182.996 236.327 183.106 236.355 183.261 236.355H183.731V237.209H183.094C182.241 237.209 181.814 236.794 181.814 235.965V234.034H181.337V233.203H181.814V232.212H182.834V233.203H183.731V234.034H182.834ZM188.241 233.203V237.209H187.221V236.703C187.091 236.876 186.92 237.013 186.708 237.115C186.501 237.211 186.274 237.259 186.028 237.259C185.715 237.259 185.438 237.194 185.197 237.064C184.955 236.929 184.765 236.734 184.625 236.478C184.49 236.218 184.423 235.91 184.423 235.553V233.203H185.435V235.408C185.435 235.726 185.515 235.972 185.674 236.146C185.833 236.314 186.05 236.399 186.325 236.399C186.604 236.399 186.824 236.314 186.983 236.146C187.142 235.972 187.221 235.726 187.221 235.408V233.203H188.241ZM194.215 233.145C194.707 233.145 195.102 233.297 195.401 233.6C195.705 233.899 195.856 234.319 195.856 234.859V237.209H194.844V234.996C194.844 234.683 194.765 234.444 194.605 234.28C194.446 234.111 194.229 234.027 193.955 234.027C193.68 234.027 193.46 234.111 193.297 234.28C193.137 234.444 193.058 234.683 193.058 234.996V237.209H192.046V234.996C192.046 234.683 191.966 234.444 191.807 234.28C191.648 234.111 191.431 234.027 191.156 234.027C190.876 234.027 190.655 234.111 190.491 234.28C190.332 234.444 190.252 234.683 190.252 234.996V237.209H189.24V233.203H190.252V233.687C190.382 233.518 190.549 233.386 190.751 233.289C190.958 233.193 191.185 233.145 191.431 233.145C191.744 233.145 192.024 233.212 192.27 233.347C192.516 233.477 192.706 233.665 192.841 233.911C192.971 233.68 193.159 233.494 193.405 233.354C193.656 233.215 193.926 233.145 194.215 233.145ZM199.037 233.145C199.514 233.145 199.9 233.297 200.194 233.6C200.488 233.899 200.635 234.319 200.635 234.859V237.209H199.623V234.996C199.623 234.678 199.543 234.434 199.384 234.266C199.225 234.092 199.008 234.005 198.733 234.005C198.454 234.005 198.232 234.092 198.068 234.266C197.909 234.434 197.83 234.678 197.83 234.996V237.209H196.817V233.203H197.83V233.702C197.965 233.528 198.136 233.393 198.343 233.297C198.555 233.195 198.786 233.145 199.037 233.145Z" fill="#111D31"/>
<path d="M34.8531 235.069L34.1472 234.663L34.705 234.515C34.7462 234.505 34.785 234.487 34.8192 234.462C34.8533 234.437 34.8821 234.406 34.9039 234.37C34.9256 234.333 34.9398 234.293 34.9456 234.251C34.9514 234.209 34.9487 234.167 34.9377 234.126C34.9267 234.085 34.9076 234.047 34.8815 234.013C34.8555 233.98 34.823 233.952 34.7859 233.932C34.7489 233.912 34.7082 233.899 34.6661 233.894C34.6241 233.89 34.5815 233.894 34.5411 233.906L33.3752 234.222L32.0517 233.453L33.3752 232.687L34.5411 233.002C34.6207 233.021 34.7043 233.008 34.7744 232.966C34.8446 232.924 34.8956 232.856 34.9169 232.777C34.9381 232.698 34.9279 232.614 34.8884 232.543C34.8488 232.471 34.7831 232.418 34.705 232.394L34.1472 232.246L34.8531 231.839C34.8907 231.82 34.924 231.793 34.9509 231.76C34.9778 231.727 34.9978 231.689 35.0096 231.648C35.0215 231.607 35.025 231.564 35.0198 231.522C35.0147 231.48 35.0011 231.439 34.9798 231.402C34.9586 231.366 34.9301 231.334 34.8961 231.308C34.8621 231.283 34.8233 231.264 34.782 231.254C34.7407 231.244 34.6978 231.242 34.6559 231.249C34.6139 231.256 34.5738 231.271 34.538 231.294L33.8321 231.701L33.9802 231.143C33.9926 231.102 33.9967 231.06 33.9923 231.018C33.988 230.976 33.9752 230.935 33.9547 230.898C33.9342 230.861 33.9065 230.829 33.8732 230.802C33.8399 230.776 33.8017 230.757 33.7609 230.746C33.7201 230.735 33.6774 230.733 33.6355 230.738C33.5937 230.744 33.5534 230.758 33.5171 230.78C33.4808 230.802 33.4492 230.831 33.4243 230.865C33.3994 230.899 33.3816 230.938 33.372 230.979L33.0569 232.145L31.7366 232.908V231.376L32.5905 230.522C32.6422 230.462 32.6691 230.384 32.6661 230.305C32.663 230.226 32.6301 230.15 32.574 230.094C32.5179 230.038 32.4427 230.005 32.3633 230.002C32.284 229.999 32.2065 230.026 32.1462 230.078L31.7366 230.487V229.671C31.7366 229.588 31.7034 229.508 31.6443 229.448C31.5852 229.389 31.505 229.356 31.4214 229.356C31.3379 229.356 31.2577 229.389 31.1986 229.448C31.1395 229.508 31.1063 229.588 31.1063 229.671V230.487L30.6998 230.078C30.6395 230.026 30.562 229.999 30.4827 230.002C30.4034 230.005 30.3282 230.038 30.272 230.094C30.2159 230.15 30.183 230.226 30.18 230.305C30.1769 230.384 30.2039 230.462 30.2555 230.522L31.1063 231.376V232.904L29.7828 232.139L29.4677 230.973C29.4581 230.932 29.4403 230.893 29.4154 230.859C29.3905 230.824 29.3589 230.796 29.3227 230.774C29.2864 230.752 29.2461 230.738 29.2042 230.732C29.1623 230.726 29.1197 230.729 29.0788 230.74C29.038 230.751 28.9998 230.77 28.9665 230.796C28.9332 230.822 28.9055 230.855 28.885 230.892C28.8646 230.929 28.8518 230.97 28.8474 231.012C28.843 231.054 28.8471 231.096 28.8595 231.137L29.0076 231.694L28.3049 231.288C28.2329 231.25 28.1491 231.242 28.0711 231.264C27.993 231.287 27.9267 231.339 27.886 231.409C27.8454 231.48 27.8335 231.563 27.8528 231.642C27.8721 231.721 27.9212 231.789 27.9898 231.833L28.6957 232.24L28.1379 232.388C28.0967 232.397 28.0579 232.415 28.0237 232.44C27.9896 232.465 27.9608 232.496 27.939 232.533C27.9173 232.569 27.9031 232.609 27.8973 232.651C27.8915 232.693 27.8942 232.736 27.9052 232.777C27.9162 232.817 27.9353 232.856 27.9613 232.889C27.9874 232.922 28.0199 232.95 28.0569 232.97C28.094 232.991 28.1347 233.004 28.1768 233.008C28.2188 233.012 28.2613 233.008 28.3018 232.996L29.4677 232.681L30.7912 233.453L29.4677 234.218L28.3018 233.903C28.2613 233.891 28.2188 233.887 28.1768 233.891C28.1347 233.896 28.094 233.908 28.0569 233.929C28.0199 233.949 27.9874 233.977 27.9613 234.01C27.9353 234.044 27.9162 234.082 27.9052 234.123C27.8942 234.163 27.8915 234.206 27.8973 234.248C27.9031 234.29 27.9173 234.33 27.939 234.366C27.9608 234.403 27.9896 234.434 28.0237 234.459C28.0579 234.484 28.0967 234.502 28.1379 234.512L28.6957 234.66L27.9898 235.069C27.9212 235.113 27.8721 235.181 27.8528 235.26C27.8335 235.339 27.8454 235.423 27.886 235.493C27.9267 235.563 27.993 235.615 28.0711 235.638C28.1491 235.66 28.2329 235.652 28.3049 235.614L29.0108 235.208L28.8627 235.766C28.8503 235.806 28.8462 235.849 28.8505 235.891C28.8549 235.933 28.8677 235.974 28.8882 236.011C28.9087 236.048 28.9364 236.08 28.9697 236.106C29.003 236.132 29.0412 236.151 29.082 236.162C29.1228 236.173 29.1655 236.176 29.2073 236.17C29.2492 236.164 29.2895 236.15 29.3258 236.128C29.3621 236.107 29.3936 236.078 29.4186 236.044C29.4435 236.01 29.4613 235.971 29.4709 235.93L29.786 234.764L31.1063 233.998V235.526L30.2524 236.38C30.2007 236.44 30.1738 236.518 30.1768 236.597C30.1799 236.677 30.2128 236.752 30.2689 236.808C30.325 236.864 30.4002 236.897 30.4795 236.9C30.5588 236.903 30.6364 236.876 30.6967 236.824L31.1063 236.418V237.234C31.1063 237.318 31.1395 237.398 31.1986 237.457C31.2577 237.516 31.3379 237.549 31.4214 237.549C31.505 237.549 31.5852 237.516 31.6443 237.457C31.7034 237.398 31.7366 237.318 31.7366 237.234V236.418L32.1431 236.824C32.2033 236.876 32.2809 236.903 32.3602 236.9C32.4395 236.897 32.5147 236.864 32.5709 236.808C32.627 236.752 32.6599 236.677 32.6629 236.597C32.666 236.518 32.639 236.44 32.5874 236.38L31.7366 235.529V233.998L33.0601 234.764L33.3752 235.93C33.3848 235.971 33.4026 236.01 33.4275 236.044C33.4524 236.078 33.4839 236.107 33.5202 236.128C33.5565 236.15 33.5968 236.164 33.6387 236.17C33.6806 236.176 33.7232 236.173 33.7641 236.162C33.8049 236.151 33.8431 236.132 33.8764 236.106C33.9097 236.08 33.9374 236.048 33.9578 236.011C33.9783 235.974 33.9911 235.933 33.9955 235.891C33.9999 235.849 33.9957 235.806 33.9833 235.766L33.8352 235.208L34.5411 235.614C34.6131 235.652 34.6969 235.66 34.775 235.638C34.853 235.615 34.9193 235.563 34.96 235.493C35.0007 235.423 35.0126 235.339 34.9932 235.26C34.9739 235.181 34.9248 235.113 34.8562 235.069H34.8531Z" fill="#666AF6"/>
<path d="M46.9567 232.161L45.5466 237.208H44.3534L43.4061 233.615L42.4155 237.208L41.2295 237.216L39.87 232.161H40.9547L41.8442 236.08L42.871 232.161H43.9991L44.9681 236.059L45.8648 232.161H46.9567ZM48.1312 232.725C47.9528 232.725 47.8034 232.67 47.6829 232.559C47.5671 232.443 47.5093 232.301 47.5093 232.132C47.5093 231.963 47.5671 231.824 47.6829 231.713C47.8034 231.597 47.9528 231.539 48.1312 231.539C48.3096 231.539 48.4566 231.597 48.5723 231.713C48.6928 231.824 48.7531 231.963 48.7531 232.132C48.7531 232.301 48.6928 232.443 48.5723 232.559C48.4566 232.67 48.3096 232.725 48.1312 232.725ZM48.6302 233.202V237.208H47.6178V233.202H48.6302ZM51.8504 233.144C52.3277 233.144 52.7133 233.296 53.0074 233.6C53.3015 233.899 53.4485 234.318 53.4485 234.858V237.208H52.4361V234.996C52.4361 234.678 52.3566 234.434 52.1975 234.265C52.0384 234.092 51.8215 234.005 51.5467 234.005C51.2671 234.005 51.0453 234.092 50.8814 234.265C50.7223 234.434 50.6428 234.678 50.6428 234.996V237.208H49.6304V233.202H50.6428V233.701C50.7778 233.528 50.9489 233.393 51.1562 233.296C51.3683 233.195 51.5997 233.144 51.8504 233.144ZM55.59 234.034V235.972C55.59 236.107 55.6213 236.206 55.684 236.268C55.7515 236.326 55.8623 236.355 56.0166 236.355H56.4866V237.208H55.8503C54.997 237.208 54.5703 236.794 54.5703 235.965V234.034H54.0931V233.202H54.5703V232.212H55.59V233.202H56.4866V234.034H55.59ZM60.9389 235.119C60.9389 235.263 60.9293 235.393 60.91 235.509H57.9813C58.0054 235.798 58.1067 236.025 58.285 236.189C58.4634 236.353 58.6828 236.435 58.9431 236.435C59.3191 236.435 59.5867 236.273 59.7458 235.95H60.8377C60.722 236.336 60.5002 236.654 60.1724 236.905C59.8446 237.151 59.4421 237.274 58.9648 237.274C58.5791 237.274 58.232 237.189 57.9235 237.02C57.6198 236.847 57.3811 236.603 57.2076 236.29C57.0388 235.977 56.9545 235.615 56.9545 235.205C56.9545 234.791 57.0388 234.427 57.2076 234.113C57.3763 233.8 57.6125 233.559 57.9162 233.39C58.22 233.222 58.5695 233.137 58.9648 233.137C59.3456 233.137 59.6855 233.219 59.9844 233.383C60.2881 233.547 60.5219 233.781 60.6858 234.085C60.8546 234.383 60.9389 234.728 60.9389 235.119ZM59.8904 234.829C59.8856 234.569 59.7916 234.362 59.6084 234.207C59.4252 234.048 59.201 233.969 58.9359 233.969C58.6852 233.969 58.4731 234.046 58.2995 234.2C58.1308 234.35 58.0271 234.559 57.9886 234.829H59.8904ZM62.6903 233.824C62.8204 233.612 62.9892 233.446 63.1965 233.325C63.4086 233.205 63.6496 233.144 63.9196 233.144V234.207H63.652C63.3339 234.207 63.0928 234.282 62.9289 234.432C62.7698 234.581 62.6903 234.841 62.6903 235.213V237.208H61.6779V233.202H62.6903V233.824Z" fill="#111D31"/>
<line x1="12" y1="219.475" x2="362.117" y2="219.475" stroke="#DAE4EE" stroke-width="0.60261"/>
<defs>
<filter id="filter0_d_8254_2425" x="0.924374" y="0.357973" width="372.268" height="268.958" filterUnits="userSpaceOnUse" color-interpolation-filters="sRGB">
<feFlood flood-opacity="0" result="BackgroundImageFix"/>
<feColorMatrix in="SourceAlpha" type="matrix" values="0 0 0 0 0 0 0 0 0 0 0 0 0 0 0 0 0 0 127 0" result="hardAlpha"/>
<feMorphology radius="10.2839" operator="erode" in="SourceAlpha" result="effect1_dropShadow_8254_2425"/>
<feOffset dy="9.04981"/>
<feGaussianBlur stdDeviation="10.6798"/>
<feComposite in2="hardAlpha" operator="out"/>
<feColorMatrix type="matrix" values="0 0 0 0 0.387605 0 0 0 0 0.363934 0 0 0 0 0.774228 0 0 0 0.6 0"/>
<feBlend mode="normal" in2="BackgroundImageFix" result="effect1_dropShadow_8254_2425"/>
<feBlend mode="normal" in="SourceGraphic" in2="effect1_dropShadow_8254_2425" result="shape"/>
</filter>
<filter id="filter1_d_8254_2425" x="238.202" y="135.512" width="21.7683" height="21.7688" filterUnits="userSpaceOnUse" color-interpolation-filters="sRGB">
<feFlood flood-opacity="0" result="BackgroundImageFix"/>
<feColorMatrix in="SourceAlpha" type="matrix" values="0 0 0 0 0 0 0 0 0 0 0 0 0 0 0 0 0 0 127 0" result="hardAlpha"/>
<feOffset dy="2.41044"/>
<feGaussianBlur stdDeviation="1.50653"/>
<feComposite in2="hardAlpha" operator="out"/>
<feColorMatrix type="matrix" values="0 0 0 0 0.641667 0 0 0 0 0.641667 0 0 0 0 0.641667 0 0 0 0.25 0"/>
<feBlend mode="normal" in2="BackgroundImageFix" result="effect1_dropShadow_8254_2425"/>
<feBlend mode="normal" in="SourceGraphic" in2="effect1_dropShadow_8254_2425" result="shape"/>
</filter>
<filter id="filter2_d_8254_2425" x="225.339" y="163.605" width="21.7683" height="21.7688" filterUnits="userSpaceOnUse" color-interpolation-filters="sRGB">
<feFlood flood-opacity="0" result="BackgroundImageFix"/>
<feColorMatrix in="SourceAlpha" type="matrix" values="0 0 0 0 0 0 0 0 0 0 0 0 0 0 0 0 0 0 127 0" result="hardAlpha"/>
<feOffset dy="2.41044"/>
<feGaussianBlur stdDeviation="1.50653"/>
<feComposite in2="hardAlpha" operator="out"/>
<feColorMatrix type="matrix" values="0 0 0 0 0.641667 0 0 0 0 0.641667 0 0 0 0 0.641667 0 0 0 0.25 0"/>
<feBlend mode="normal" in2="BackgroundImageFix" result="effect1_dropShadow_8254_2425"/>
<feBlend mode="normal" in="SourceGraphic" in2="effect1_dropShadow_8254_2425" result="shape"/>
</filter>
<filter id="filter3_d_8254_2425" x="270.639" y="160.908" width="21.7683" height="21.7688" filterUnits="userSpaceOnUse" color-interpolation-filters="sRGB">
<feFlood flood-opacity="0" result="BackgroundImageFix"/>
<feColorMatrix in="SourceAlpha" type="matrix" values="0 0 0 0 0 0 0 0 0 0 0 0 0 0 0 0 0 0 127 0" result="hardAlpha"/>
<feOffset dy="2.41044"/>
<feGaussianBlur stdDeviation="1.50653"/>
<feComposite in2="hardAlpha" operator="out"/>
<feColorMatrix type="matrix" values="0 0 0 0 0.641667 0 0 0 0 0.641667 0 0 0 0 0.641667 0 0 0 0.25 0"/>
<feBlend mode="normal" in2="BackgroundImageFix" result="effect1_dropShadow_8254_2425"/>
<feBlend mode="normal" in="SourceGraphic" in2="effect1_dropShadow_8254_2425" result="shape"/>
</filter>
<linearGradient id="paint0_linear_8254_2425" x1="350.92" y1="131.04" x2="229.563" y2="145.802" gradientUnits="userSpaceOnUse">
<stop stop-color="#F03E77"/>
<stop offset="1" stop-color="#654AFB"/>
</linearGradient>
<linearGradient id="paint1_linear_8254_2425" x1="357.2" y1="126.646" x2="230.076" y2="135.378" gradientUnits="userSpaceOnUse">
<stop stop-color="#F03E77"/>
<stop offset="1" stop-color="#654AFB"/>
</linearGradient>
<linearGradient id="paint2_linear_8254_2425" x1="357.472" y1="161.396" x2="229.846" y2="173.633" gradientUnits="userSpaceOnUse">
<stop stop-color="#F03E77"/>
<stop offset="1" stop-color="#654AFB"/>
</linearGradient>
</defs>
</svg>
